<?xml version="1.0" encoding="utf-8"?>
<!-- Generator: Adobe Illustrator 21.0.0, SVG Export Plug-In . SVG Version: 6.00 Build 0)  -->
<svg version="1.1" id="Layer_1" xmlns="http://www.w3.org/2000/svg" xmlns:xlink="http://www.w3.org/1999/xlink" x="0px" y="0px"
	 viewBox="0 0 200 200" style="enable-background:new 0 0 200 200;" xml:space="preserve">
<style type="text/css">
	.st0{fill:#FFFFFF;}
	.st1{fill:#FDD835;}
	.st2{fill:#FF8F00;}
</style>
<path class="st0" d="M74.5,183.8c-0.6,0-1.2-0.1-1.8-0.4c-1.8-0.9-2.6-3-2-4.8l25.5-76.4l-44.4,21.8c-1.4,0.7-3,0.5-4.2-0.4
	c-1.2-0.9-1.8-2.5-1.5-4l19-95c0.3-1.7,1.8-3,3.5-3.2l51-5c1.5-0.2,3.1,0.6,3.8,2s0.7,3-0.2,4.3L87.4,73.9l62.2-6.6
	c1.5-0.2,3.1,0.6,3.9,1.9c0.8,1.3,0.7,3-0.2,4.3L77.8,182C77,183.1,75.8,183.8,74.5,183.8z M103,90.3c0.9,0,1.9,0.3,2.6,1
	c1.2,1.1,1.7,2.7,1.2,4.3l-19.7,59.1l54.6-78.5l-62.3,6.6c-1.6,0.2-3.1-0.6-3.9-1.9c-0.8-1.4-0.7-3,0.2-4.3l36-51.4l-39.4,3.9
	l-16.8,84.2l45.7-22.4C101.8,90.4,102.4,90.3,103,90.3z"/>
<polygon class="st1" points="103,94.3 150,71.2 74.5,179.8 "/>
<polygon class="st2" points="50,120.2 79,78.8 150,71.2 "/>
<polygon class="st1" points="69,25.2 120,20.2 50,120.2 "/>
</svg>
